<svg width="40" height="40" viewBox="0 0 40 40" fill="none" xmlns="http://www.w3.org/2000/svg">
<g clip-path="url(#clip0_5_473)">
<rect width="40" height="40" fill="white"/>
<rect width="40" height="40" fill="#012350"/>
<path fill-rule="evenodd" clip-rule="evenodd" d="M26.0446 5.15159C26.8295 4.81021 27.7033 5.04167 28.029 5.88401C28.2931 6.56708 28.1499 7.2126 27.8786 7.87132C27.7702 8.13641 27.6421 8.40738 27.5788 8.68577C29.7896 10.1979 31.2264 11.6076 31.7966 14.3625C32.5212 17.8634 30.9525 20.5805 28.8249 23.2073C28.1056 24.0952 26.7183 25.3471 26.8913 26.6282C27.125 27.6583 28.479 28.1558 29.2595 28.676C30.4068 29.4409 31.5254 30.3284 31.8249 31.7219C32.1815 33.381 31.1057 34.6791 29.5144 34.9875C28.4818 35.1877 26.2113 35.3171 25.1345 34.8694L24.9353 34.7717L24.7341 34.6067C22.6899 32.8531 21.8576 29.6603 21.8034 27.0715C21.7951 26.7966 21.7961 26.5212 21.8054 26.2463C21.8105 26.1277 21.8751 25.5385 21.8532 25.4826C21.715 25.4106 21.2551 25.486 21.0661 25.5012C20.6245 25.2822 20.674 25.0548 20.946 24.7248C21.1668 24.6991 21.344 24.6999 21.5808 24.6643C22.6087 24.6417 24.2692 23.4452 24.9167 22.6907C25.4723 22.0432 26.2356 20.7375 26.3513 19.8576C26.6378 17.6757 26.3235 15.6435 23.6276 15.8098C22.5007 15.8007 20.1827 16.3486 19.3493 17.1535C19.905 18.3372 21.2206 18.504 22.3933 18.3098C22.7041 18.2583 23.1575 18.0247 23.3347 18.3967C23.5533 18.8344 22.7619 19.0872 22.4694 19.343C21.9329 19.8123 21.6897 20.3677 21.5534 21.0617C21.5163 21.2451 21.4546 21.4743 21.3728 21.6418C20.9107 21.7162 20.6375 21.5679 20.7634 21.05C20.9678 20.1607 21.0207 19.9261 21.6003 19.1535C20.4086 19.1287 19.5435 18.7282 18.7937 17.8117C18.6325 17.8346 18.122 17.7971 17.9636 17.7385C17.8326 17.6898 17.722 17.5951 17.5476 17.5559C17.3709 17.5974 17.2973 17.9458 17.1794 18.0842C16.4362 18.9542 15.3485 19.1115 14.5554 18.2346C14.3948 19.1914 14.2655 20.0671 14.3571 21.0451C14.4139 22.2489 14.6079 23.0611 15.5271 23.9123C15.9134 24.2776 16.4017 24.4989 16.9187 24.6067C17.0761 24.6395 17.3065 24.6672 17.4499 24.7326C17.7401 24.8652 17.6382 25.16 17.4939 25.3567C17.2492 25.4434 17.1688 25.4443 16.9099 25.4211C16.6483 25.3503 16.461 25.2918 16.2058 25.2024C16.2512 25.8638 16.1177 26.2398 15.9851 26.8772C15.9005 27.3024 15.8136 27.7273 15.7243 28.1516C15.6137 28.6885 15.5358 29.2291 15.4577 29.7717C15.354 30.4863 15.2956 31.2068 15.2829 31.9289C15.2746 32.3562 15.2826 32.7829 15.2673 33.2102C15.2494 33.7088 15.123 33.9888 14.8015 34.3576L14.5612 34.6223C13.9725 35.0713 13.3189 35.0997 12.6218 35.1819C10.2451 35.4621 8.65776 34.0026 9.06319 31.5832C10.0142 26.4756 10.4091 21.2762 9.69698 16.1086C9.49704 14.6577 9.11084 12.9647 9.26534 11.5266C9.6184 8.24084 11.9601 7.46991 14.7946 7.15061C17.4235 6.85449 19.8928 6.65358 22.5329 7.0012C23.0681 7.06833 23.6236 7.24212 24.1677 7.31272C24.5215 6.45557 25.1687 5.53266 26.0446 5.15159ZM18.8952 7.5471C17.1618 7.65154 15.4866 7.71204 13.779 8.05979C12.6975 8.28005 11.683 8.45422 10.9314 9.32737C9.72262 10.7315 9.87209 12.5172 10.1735 14.2082C10.3315 15.094 10.389 16.0425 10.5495 16.9338C10.6264 17.5132 10.6524 18.1984 10.6911 18.7903C10.8009 20.3224 10.8321 21.8594 10.7849 23.3948C10.7639 23.9104 10.7038 24.4064 10.656 24.9201C10.6141 25.3695 10.6119 25.8601 10.5612 26.3059C10.4441 27.3376 10.3148 28.4011 10.1853 29.428C10.0716 30.329 9.79934 31.2178 9.74874 32.1242C9.64674 33.9529 10.9396 34.6457 12.5993 34.4573C13.1308 34.3968 13.8113 34.352 14.2009 33.9182C14.6526 33.4032 14.538 32.5948 14.5388 31.9358C14.5396 31.5778 14.5561 31.2199 14.5876 30.8635C14.6464 30.2132 14.6976 29.617 14.8073 28.9533C14.9884 27.8587 15.3619 26.5858 15.4362 25.4914C15.4834 24.7968 14.5675 24.1103 14.2653 23.5696C13.5714 22.4391 13.4659 21.0912 13.5817 19.7971C13.6376 18.9629 13.9031 18.1101 13.8786 17.2737C13.84 15.9516 13.0535 14.7908 13.7155 13.4748C14.2026 12.5069 15.1524 12.3158 16.0251 12.9075C16.1704 12.4802 16.2962 12.0709 16.6452 11.7561C17.2482 11.2127 18.303 11.0898 18.9275 11.6682C18.9919 11.7279 19.0632 11.8141 19.1218 11.8811C19.3149 11.5148 19.4485 11.1729 19.7702 10.8977C20.8008 10.0165 22.1672 10.579 22.6794 11.7375C22.9861 10.9905 23.1689 10.019 23.4118 9.22776C23.5053 8.92332 23.747 8.27888 23.8015 8.02561C22.8689 7.60081 19.9851 7.50423 18.8952 7.5471ZM27.3073 9.39085C27.1286 9.77138 26.9743 10.1972 26.8562 10.6008C26.6738 11.2238 25.7224 15.2057 25.8093 15.4582C25.8634 15.6147 26.0944 15.7319 26.2331 15.8049C27.1632 16.9396 27.2571 18.2406 27.1208 19.6457C27.0103 20.7836 26.3929 22.0044 25.7087 22.9133C25.5037 23.1855 25.138 23.5264 24.9616 23.8049C24.7875 23.8722 24.3595 24.2246 24.1472 24.3742C23.8465 24.586 22.8839 25.0105 22.7292 25.2864C22.5702 25.6565 22.5645 26.1601 22.5681 26.5461C22.5835 28.2248 22.8301 30.0351 23.4802 31.593C23.8676 32.5215 24.9777 34.3607 26.0817 34.3635C27.063 34.4901 28.1207 34.4468 29.1023 34.3235C31.0713 34.0758 31.781 32.4194 30.5915 30.8196C29.7918 29.6827 28.4222 29.1125 27.3181 28.3537C25.129 26.8492 26.4388 24.7206 27.8405 23.2356C28.2851 22.7646 28.885 21.9254 29.2663 21.4065C30.646 19.529 31.5917 17.1997 31.155 14.8401C30.7846 12.626 29.7179 11.098 27.8903 9.81565C27.7043 9.67264 27.506 9.51278 27.3073 9.39085ZM15.323 13.4055C15.1918 13.3431 14.986 13.2641 14.8493 13.3313C13.6746 13.9088 14.4517 16.2244 14.7663 17.0227C14.8679 17.2869 15.0109 17.5332 15.1892 17.7532C15.3122 18.043 15.6942 18.142 15.9714 18.0383C16.302 17.9146 16.5488 17.7145 16.7116 17.4026C17.0399 16.7738 16.615 16.3012 16.4333 15.7278C16.3426 15.489 16.3075 15.1476 16.1872 14.8625C16.0027 14.5168 15.8573 14.1452 15.6189 13.8283C15.5093 13.6827 15.4148 13.5635 15.323 13.4055ZM18.3816 12.2346C17.9374 11.8884 17.2914 12.0829 16.9734 12.5061C16.6492 12.9375 16.8524 13.7921 16.9001 14.301C17.0087 14.9781 17.2267 15.9323 17.6208 16.4992C17.6689 16.5684 17.7417 16.7007 17.8005 16.7571C18.139 16.6656 18.347 16.7343 18.7146 16.4299C19.2922 15.9512 19.0714 15.0873 19.1452 14.3791L19.0993 14.0617C18.8981 13.5525 18.8106 13.0256 18.5026 12.551C18.4406 12.4555 18.3866 12.3499 18.3816 12.2346ZM21.6179 11.5373C21.1382 11.1187 20.626 11.0578 20.1657 11.5617C19.6901 12.0828 19.8329 12.9777 19.8562 13.6291C19.8938 14.3063 20.1205 15.0362 20.238 15.7102C20.7191 15.5989 21.3187 15.4253 21.8073 15.2883C22.0327 15.2468 22.239 15.1846 22.4587 15.1223C22.4647 14.6877 22.439 14.2534 22.3825 13.8225C22.3083 13.2347 22.1004 11.9113 21.6179 11.5373ZM23.4743 11.6926C23.3837 12.1306 23.1418 12.8886 23.0827 13.2893C23.0546 13.4824 23.1957 14.2897 23.2126 14.5735C23.2075 14.7289 23.2109 14.8866 23.2126 15.0422C23.4413 15.0567 23.7676 15.0333 24.0163 15.0442C24.3079 15.057 24.7593 15.1192 25.0261 15.0862C25.1412 14.9576 25.5383 12.8398 25.5681 12.553C25.3888 12.5181 25.2284 12.4887 25.0476 12.4641C24.3933 12.2992 24.009 12.1102 23.4743 11.6926ZM23.9128 10.1985C23.8922 10.4296 23.7117 10.986 23.6247 11.2268C24.179 11.7846 24.3345 11.8677 25.0984 12.0803C25.2524 12.1043 25.5602 12.1838 25.6794 12.0823C25.6555 11.9396 25.3617 11.8063 25.2409 11.7385C24.6874 11.276 24.226 10.8804 23.9128 10.1985ZM25.9978 10.8762C25.6574 10.9663 25.4964 10.9599 25.1579 10.9953L25.0505 10.9856L25.0251 11.0129C25.0561 11.1208 25.2472 11.2484 25.3405 11.3137C25.5141 11.4447 25.624 11.5182 25.8112 11.6291C25.8671 11.3796 25.9199 11.1189 25.9978 10.8762ZM24.4382 8.5305C24.1429 9.12981 23.9077 10.0784 24.6609 10.4533C24.8839 10.5644 25.3049 10.6654 25.5437 10.5871C25.749 10.5621 25.788 10.5522 25.9841 10.4875C26.1862 10.2867 26.3022 10.0123 26.3747 9.74046C26.4526 9.44818 26.1749 9.44864 25.9665 9.4094C25.4508 9.16606 24.8799 8.88655 24.4382 8.5305ZM26.6931 5.73362C25.7151 6.02792 25.416 6.54633 24.9216 7.42601C24.7859 7.66747 24.6599 7.91934 24.5759 8.18479C25.0568 8.53942 25.5861 8.82395 26.1472 9.02952C26.2521 9.07434 26.436 9.16379 26.5427 9.12327C26.6672 8.99516 26.8077 8.60504 26.865 8.42015C27.1658 7.44927 27.8877 6.62996 27.0075 5.72972C26.9027 5.72894 26.7978 5.73005 26.6931 5.73362Z" fill="white"/>
</g>
<defs>
<clipPath id="clip0_5_473">
<rect width="40" height="40" fill="white"/>
</clipPath>
</defs>
</svg>
