<svg width="40" height="40" viewBox="0 0 40 40" fill="none" xmlns="http://www.w3.org/2000/svg">
<g clip-path="url(#clip0_3_24)">
<rect width="40" height="40" fill="white"/>
<rect width="40" height="40" fill="black"/>
<path d="M15.7756 5.74237C16.6146 5.68164 17.2423 6.54627 17.7385 7.14228C19.8048 9.62414 21.1874 12.6714 21.8394 15.8174C21.9414 15.7848 22.0443 15.7551 22.1479 15.7283C24.8907 15.0222 28.2783 15.5062 29.8937 18.0864C30.1041 18.4224 30.2556 18.8094 30.3538 19.1924C30.6785 20.4159 30.5003 21.7175 29.8585 22.8104C28.9659 24.2968 27.6722 24.7681 26.0918 25.1665C26.7089 27.2082 27.6117 29.1381 28.2707 31.1701C28.6994 32.4919 26.8537 33.2682 26.3181 32.1509C25.9082 31.2959 25.6495 30.2377 25.2959 29.3515C24.6766 27.8208 24.0861 26.2735 23.5939 24.6975C23.543 24.5346 23.4793 24.1532 23.5301 24.0048C23.675 23.5818 23.9857 23.2314 24.4475 23.1868C25.6549 23.0702 27.2923 22.82 27.9765 21.6976C28.6508 20.5292 28.2848 18.9683 27.0831 18.2925C25.3839 17.3369 23.8806 17.5444 22.0833 18.028C22.0602 19.3154 22.1714 20.6794 22.0177 21.9375C21.8351 22.5014 21.3163 22.6751 20.8208 22.5878C19.1883 22.3002 17.2476 22.4923 15.8185 23.214C14.073 24.1967 12.9308 26.3818 13.6388 28.2968C14.7543 31.3143 18.3166 31.3862 20.8571 30.5569L20.8547 28.2988C19.9147 28.2965 18.9608 28.3216 18.0226 28.2984C17.7031 28.2838 17.3487 28.2212 17.1409 27.9532C16.9869 27.7548 16.8419 27.3012 16.8657 27.0502C16.8937 26.7551 17.0413 26.484 17.2745 26.2991C17.3541 26.2372 17.4886 26.1636 17.5918 26.1587C19.0939 26.0876 20.6216 26.1129 22.1256 26.1469C22.4493 26.1541 22.7888 26.5762 22.9699 26.8084C22.9859 27.0666 22.9962 27.3292 22.9919 27.5878C22.9707 28.8461 23.0332 30.1355 22.9696 31.3905C21.8312 32.9062 20.2277 33.1438 18.417 33.1831C16.4469 33.2258 14.5227 32.7758 13.0759 31.3744C11.9281 30.2447 11.2748 28.7109 11.2576 27.1056C11.252 25.3933 11.9277 23.7482 13.1373 22.5288C13.5942 22.0685 13.9068 21.8887 14.4239 21.5446C16.1577 20.3912 17.8808 20.2939 19.8962 20.2836L19.8921 17.3782C19.4425 16.6126 18.7688 15.8137 18.3283 15.1073C17.2107 13.3152 14.8024 7.6337 15.7756 5.74237Z" fill="white"/>
<path d="M7.39722 27.0565C8.89019 26.8255 10.2889 27.8408 10.5217 29.3245C10.7544 30.8082 9.73304 32.1984 8.24012 32.4301C6.7468 32.6618 5.34727 31.6463 5.11443 30.1622C4.88164 28.6781 5.90376 27.2875 7.39722 27.0565Z" fill="white"/>
<path d="M7.7664 29.2053C8.02889 29.1844 8.27014 29.3492 8.34445 29.6002C8.38934 29.7517 8.36687 29.915 8.2828 30.049C8.19867 30.183 8.06099 30.2748 7.90436 30.3013C7.70262 30.3355 7.49825 30.2568 7.37232 30.0966C7.24638 29.9362 7.21917 29.7202 7.30153 29.534C7.38385 29.3478 7.5624 29.2215 7.7664 29.2053Z" fill="black"/>
<path d="M24.6413 5.74768C24.7172 5.73914 24.9716 5.71033 25.0089 5.73779C26.1842 6.60284 25.6632 10.3238 25.3053 11.3382C24.8614 12.5966 24.1818 14.0434 23.207 14.5455C21.6677 14.5914 22.2133 10.2529 22.4978 9.4033C22.8387 8.38537 23.6717 6.28205 24.6413 5.74768Z" fill="white"/>
<path d="M24.903 19.1081C25.1999 19.0434 25.5087 19.1436 25.71 19.3699C25.9112 19.5963 25.9732 19.9132 25.8721 20.198C25.7709 20.4829 25.5223 20.6908 25.2227 20.7414C24.7744 20.8171 24.3472 20.5235 24.2604 20.0799C24.1736 19.6363 24.4588 19.2049 24.903 19.1081Z" fill="white"/>
</g>
<defs>
<clipPath id="clip0_3_24">
<rect width="40" height="40" fill="white"/>
</clipPath>
</defs>
</svg>
