<svg width="40" height="40" viewBox="0 0 40 40" fill="none" xmlns="http://www.w3.org/2000/svg">
<g clip-path="url(#clip0_5_49)">
<rect width="40" height="40" fill="white"/>
<rect width="40" height="40" fill="#DF5C15"/>
<path fill-rule="evenodd" clip-rule="evenodd" d="M20.3662 8.0127C22.0811 8.15183 23.3972 9.5448 24.7354 10.5049C26.0358 11.4379 27.7295 12.2677 28.8545 13.4443L29.0723 13.6846L29.208 13.8047C29.5244 14.1003 29.8287 14.4961 30.0762 14.8291C31.2798 16.449 31.9456 18.2927 32.4014 20.2383C32.6661 21.3684 32.8144 21.9892 32.7383 23.1816L34.6377 23.1719C34.8513 23.3708 35.1959 23.7101 35.418 23.877L35.4131 27.2559C35.412 27.7045 35.3841 28.5659 35.4199 28.9883C35.3108 29.0626 35.0695 29.2575 34.9941 29.3008C34.8056 29.4583 34.7094 29.543 34.541 29.7256C33.7055 29.4863 32.2741 29.3556 31.4023 29.2822C30.1729 29.1705 28.9406 29.0895 27.707 29.04C21.0593 28.7529 14.3862 28.7722 7.75098 29.3535C6.9609 29.4227 6.18163 29.606 5.3877 29.6953C5.18834 29.4419 4.84064 29.1896 4.58105 28.9834L4.59375 23.916C4.76932 23.7149 5.11942 23.4001 5.32324 23.2061C5.44143 23.1574 6.96645 23.1787 7.22852 23.1787C7.1346 22.8215 7.05843 22.221 7.32227 21.9229L7.37695 21.8477C7.67337 21.4796 8.27401 21.2531 8.38184 20.9961C8.59155 20.4957 8.46824 19.8309 8.77344 19.2363C9.08829 18.623 9.60925 18.2496 9.88281 17.6533C10.3058 16.7307 10.2271 16.1163 10.7695 15.1914C11.0683 14.523 11.9912 13.7875 12.2324 13.1367C12.6952 11.8864 12.3534 10.5378 13.5244 9.5332C13.755 9.33603 14.0257 9.19094 14.3174 9.10742C14.957 8.91932 15.807 8.94009 16.4766 8.79102C17.7536 8.50803 19.0306 7.90434 20.3662 8.0127ZM5.59766 23.5049C5.26423 23.6636 5.1345 23.8478 4.91016 24.1289C4.90022 25.0795 4.8961 26.0309 4.89941 26.9814C4.89933 27.5498 4.88277 28.2347 4.91309 28.7949C5.07311 28.9666 5.30717 29.1906 5.50684 29.3145C6.05186 29.2816 6.59472 29.1726 7.1377 29.1172C9.383 28.888 11.6354 28.7059 13.8936 28.6934C14.4136 28.6905 14.9414 28.6684 15.4619 28.6602C17.9643 28.5326 20.473 28.5286 22.9775 28.5801C23.6413 28.5937 24.3072 28.6514 24.9707 28.6621C26.6255 28.6888 28.2522 28.7405 29.9023 28.8779C30.8724 28.9567 31.8418 29.048 32.8096 29.1504C33.3008 29.2065 33.9494 29.3246 34.4258 29.3506C34.6891 29.1417 34.8348 29.0288 35.0586 28.7822C35.0814 28.452 35.0995 28.152 35.1045 27.8213L35.0908 27.6172C35.0833 27.3271 35.0908 26.8409 35.0898 26.7168C35.0835 25.8601 35.1155 24.991 35.0625 24.1357C34.8845 23.9046 34.6994 23.7044 34.5039 23.4883L5.59766 23.5049ZM9.07129 23.8145L15.4668 23.8135L34.3262 23.8115C34.534 23.9741 34.6044 24.0407 34.7451 24.2627C34.7893 24.8838 34.7675 25.6156 34.7676 26.249C34.7676 27.0261 34.7855 27.8706 34.749 28.6426C34.5721 28.8066 34.4568 28.8959 34.2646 29.0381C34.0832 29.0179 33.7674 28.9492 33.5781 28.9141C32.8226 28.7664 31.9647 28.7145 31.1914 28.6514C29.7796 28.5261 28.3639 28.4419 26.9473 28.3984C22.4247 28.1892 17.8949 28.1869 13.3721 28.3906C10.9192 28.4796 8.07329 28.5636 5.66309 28.998L5.22266 28.6641C5.21012 28.4441 5.20337 28.2232 5.20605 28.0029C5.22158 26.7427 5.17426 25.4655 5.22559 24.207C5.40228 24.0381 5.51879 23.9585 5.7168 23.8203C6.79521 23.7898 7.98286 23.8147 9.07129 23.8145ZM31.1699 24.5234C31.1605 24.7717 31.061 25.317 31.3994 25.3281C31.4272 25.3288 31.4556 25.3284 31.4834 25.3281C31.6231 25.5275 31.5477 27.425 31.5527 27.7881C32.3549 27.9987 33.2141 28.3025 33.918 27.6719C34.3687 26.8481 34.0918 26.7417 33.7695 26.0859C33.7701 26.0854 33.9078 25.6965 33.9111 25.6553C33.9579 25.2893 33.68 24.8686 33.3721 24.7148C32.848 24.4534 31.7848 24.5269 31.1699 24.5234ZM7.61719 24.5459C7.0972 24.5527 6.56354 24.5534 6.04492 24.5674L6.05566 25.3633L6.99805 25.3613C6.99701 25.9868 6.96189 27.3672 7.01562 27.9316C7.12486 27.9904 7.10192 27.9717 7.23926 27.9688C7.43384 27.9527 7.62781 27.9389 7.82129 27.9121C7.82424 27.0595 7.81665 26.1743 7.83301 25.3242C8.14606 25.3386 8.45554 25.3265 8.76855 25.3174L8.77441 24.542L7.61719 24.5459ZM27.6006 24.293C27.374 24.9667 27.2167 25.617 27.0303 26.3008C26.9157 26.7209 26.7546 27.1407 26.6436 27.5615C26.9291 27.5771 27.2854 27.6061 27.5654 27.6016C27.6413 27.2756 27.7169 26.9555 27.7773 26.626L27.8359 26.4443C28.1318 26.4672 28.6603 27.6221 28.8125 27.9268C29.0719 27.4848 29.531 26.7732 29.7383 26.3457C29.8685 26.8189 30.0016 27.3436 30.1592 27.8047C30.4352 27.8172 30.7121 27.8337 30.9883 27.8301C30.7564 26.9184 30.3426 25.3141 30.0654 24.3643C30.0373 24.3413 30.0131 24.3219 29.9932 24.3057C29.649 25.0226 29.2413 25.6552 28.8232 26.3281C28.449 25.7084 27.9427 24.9118 27.6006 24.293ZM11.1934 24.5273C11.175 24.9138 11.0649 25.208 11.4717 25.3545C11.5615 25.4956 11.5329 25.5961 11.5303 25.7871C11.0976 25.7992 10.609 25.8225 10.1807 25.8203C10.1878 25.4434 10.1831 24.9 10.209 24.5352C9.92351 24.5311 9.63801 24.5286 9.35254 24.5283V27.8252C9.62797 27.82 9.90215 27.8186 10.1768 27.7969L10.1836 26.5752C10.5323 26.555 11.216 26.5419 11.5283 26.502L11.5322 27.6982C11.7244 27.6938 12.2476 27.7144 12.3721 27.5762C12.4099 27.5332 12.4005 27.409 12.4033 27.3369C12.4082 26.4522 12.4411 25.393 12.4072 24.5186C12.0026 24.5191 11.5979 24.5217 11.1934 24.5273ZM15.3604 24.4932C14.905 24.4965 13.2683 24.5402 12.9111 24.4961C12.9282 24.7589 12.9242 24.9955 12.9209 25.2588C13.0515 25.2629 13.2143 25.2525 13.3203 25.3174C13.3768 25.7063 13.3349 27.0899 13.3379 27.5674C13.9692 27.5487 14.7369 27.5447 15.3535 27.498L15.3555 26.8105C15.0377 26.8109 14.3998 26.8921 14.1885 26.7549C14.1271 26.6155 14.1557 26.6037 14.1738 26.4297L15.3516 26.4189L15.3535 25.6865C15.1771 25.6851 14.3157 25.7047 14.2002 25.6768C14.1602 25.5774 14.1481 25.3427 14.2109 25.2529C14.5193 25.2167 15.0315 25.2355 15.3564 25.2383L15.3604 24.4932ZM24.4736 24.499C24.4177 25.8069 24.8408 24.7121 24.8555 25.7021C24.8583 25.8974 24.8668 26.5859 24.8027 26.7441C24.7294 26.8074 24.6864 26.8091 24.5908 26.8311C24.4188 26.9915 24.4695 27.2651 24.4736 27.4893C25.003 27.5121 25.5327 27.5264 26.0625 27.5312C26.0716 27.3694 26.1093 27.085 26.0439 26.9512C25.7848 26.6871 25.6842 26.7449 25.7129 26.2598C25.7285 25.997 25.6681 25.5212 25.7627 25.2881C25.9017 25.1541 25.9123 25.2371 26.0088 25.1992C26.1189 25.1555 26.0668 24.5862 26.0625 24.5C25.5329 24.4925 25.0032 24.4923 24.4736 24.499ZM21.3096 24.5039C21.297 24.7106 21.2457 25.0107 21.3486 25.1719C21.4466 25.2419 21.532 25.2227 21.6572 25.2178L21.6611 27.4346L23.8604 27.4824C23.8944 27.2439 23.8799 27.0441 23.8711 26.8047C23.4352 26.7908 22.9986 26.7836 22.5625 26.7832C22.5554 26.1037 22.5873 25.1543 22.5508 24.501C22.1383 24.4962 21.7214 24.4864 21.3096 24.5039ZM19.6992 24.415C18.2925 24.7185 17.3472 26.0275 18.7832 27.1309C19.2408 27.4824 20.0771 27.4436 20.6562 27.4355L20.668 26.9619L20.6504 26.8311C20.4232 26.6596 19.0071 26.9606 18.9307 26.0332C18.8566 25.1338 19.8308 25.0865 20.4795 25.2412C20.6103 25.0681 20.7735 24.8641 20.8955 24.6895C20.418 24.434 20.2375 24.3948 19.6992 24.415ZM32.3877 26.5791C32.7759 26.5692 33.5552 26.5544 33.2168 27.1758C32.944 27.2741 32.6764 27.2475 32.3896 27.2383C32.3825 27.0312 32.3878 26.7887 32.3877 26.5791ZM32.4004 25.3164C32.8957 25.2987 33.0741 25.2846 32.958 25.8438C32.8754 25.8553 32.7919 25.8653 32.709 25.874C32.5511 25.8893 32.5345 25.8719 32.4297 25.7852C32.3662 25.6559 32.3926 25.4662 32.4004 25.3164ZM21.4326 8.62012C20.3719 8.15231 19.0886 8.34935 18.0283 8.7168C17.6116 8.86115 17.2677 8.95541 16.8301 9.05957C15.815 9.30123 14.2828 9.14107 13.541 9.97559C13.0377 10.542 12.8389 11.4391 12.7822 12.1631C12.7584 12.4632 12.7091 13.0229 12.5762 13.2793C12.1996 14.0055 11.5915 14.4708 11.1416 15.2051C10.5668 16.1433 10.6012 16.9408 10.1299 17.9111C9.81951 18.5499 9.23467 18.9395 8.98926 19.5664C8.81615 20.0088 8.87048 20.6671 8.78027 21.1279C8.57339 21.3853 8.15158 21.7116 7.85547 21.8262C7.53811 22.1629 7.2802 22.6971 7.67773 23.0889C7.78333 23.1929 8.03655 23.2108 8.18262 23.2324C7.42472 21.8149 8.86606 22.3107 9.32617 20.7725C10.6517 20.8106 12.5158 21.7437 13.6006 22.4971C14.8332 23.3531 14.4243 23.1241 15.8818 23.1963C14.3132 21.953 11.369 19.9476 9.32031 19.9375C9.48116 19.4096 10.1208 18.6028 10.4961 18.1807C11.5816 18.145 11.91 18.5912 12.8701 18.9639C13.6251 19.2637 14.5229 19.2177 15.2686 19.5039C15.6854 19.6639 16.1674 20.0428 16.5439 20.2891C17.7554 21.0813 18.8927 21.976 19.9893 22.9189C20.0739 22.9918 20.1739 23.0754 20.2666 23.1357C20.6307 23.2003 21.1184 23.181 21.4971 23.1963C19.5996 21.5293 17.7926 20.097 15.6592 18.7441C14.2712 17.8639 12.7624 16.4343 11.04 16.3389C11.3899 15.6586 11.5101 15.3548 11.9854 14.7559C13.4449 15.3918 14.0854 16.1789 15.2764 17.0332C16.3848 17.8283 17.3135 18.5026 18.3984 19.3506C19.9606 20.5716 21.2625 21.8651 22.7246 23.1436C23.094 23.1626 23.5394 23.1723 23.9004 23.2041C22.0964 21.4467 20.2024 19.7842 18.2256 18.2236C17.3832 17.5671 16.5587 17.0197 15.7158 16.3955C14.6417 15.6 13.779 14.7827 12.5527 14.1611C12.6766 14.0076 12.7976 13.8707 12.8857 13.6934C13.3435 13.7063 14.1444 13.6924 14.5508 13.8818C16.5071 14.7936 18.3254 16.1828 20.1104 17.376C21.627 18.3898 23.0808 19.3373 24.4883 20.4688C25.162 21.017 25.8284 21.5745 26.4863 22.1416C26.7928 22.4069 27.3915 22.9579 27.7061 23.1611C28.0908 23.1829 28.5061 23.1736 28.8721 23.1982C27.3212 21.7839 25.692 20.382 24.0273 19.1016C23.2372 18.4938 22.3431 17.9278 21.5137 17.3682L19.0889 15.7012C17.9504 14.921 16.8344 14.1438 15.6416 13.4463C14.7609 12.9313 14.178 12.8161 13.1641 12.7207C13.2063 11.8928 13.3128 10.757 13.9707 10.166C14.1359 10.0169 14.3306 9.90447 14.542 9.83496C14.8371 9.7358 16.4544 9.54666 16.8262 9.52734C18.373 10.509 19.8163 11.6449 21.1338 12.918C22.1028 13.8685 23.1017 15.0229 24.0176 16.0352C25.2631 17.4082 26.4968 18.7926 27.7188 20.1865L29.2998 22.0215C29.6108 22.3847 29.97 22.8312 30.3037 23.1611C30.4818 23.1714 31.1257 23.2136 31.2793 23.1621C31.0613 22.7795 30.2473 21.9258 29.9375 21.499C29.8168 21.4178 29.112 20.5589 28.9688 20.3926C28.852 20.2928 28.3078 19.6569 28.165 19.4961L26.4092 17.5244C25.4617 16.4585 24.5069 15.3984 23.5459 14.3447C21.5778 12.1875 20.1536 10.8352 17.7168 9.18066C18.7789 8.97927 19.7266 9.26544 20.5869 9.94336C21.454 10.6266 22.2985 11.6189 23.0234 12.4551C24.1556 13.7683 25.2581 15.1069 26.3301 16.4697C27.1669 17.5282 28.4196 19.0645 29.1582 20.1621C29.4735 20.5744 29.8745 21.07 30.166 21.4883H30.165C30.588 22.0093 30.9833 22.5825 31.4014 23.0879C31.5754 23.2602 32.1256 23.1782 32.3789 23.1621C32.3927 22.2958 32.3584 21.5755 32.1523 20.7197C31.7098 18.8819 31.1341 17.0966 30.084 15.5049C29.7014 14.925 29.261 14.4168 28.8086 13.8926C28.3617 13.4974 27.9616 13.0743 27.4746 12.7188C26.5233 12.0245 25.485 11.4718 24.5283 10.7832C23.5173 10.0554 22.5721 9.13405 21.4326 8.62012ZM20.1787 8.75391C21.6851 8.81317 23.1014 10.2882 24.29 11.1172C25.463 11.9353 26.7019 12.6107 27.791 13.5264C29.9098 15.3078 31.0753 17.8017 31.6582 20.457C31.8268 21.1985 31.9658 21.7224 32.0215 22.498C31.8761 22.493 31.2556 21.5953 31.1377 21.4385C29.0577 18.6357 26.9055 15.8872 24.6826 13.1963C23.4753 11.7562 21.7951 9.66582 20.1787 8.75391ZM10.8057 17.1621C11.5256 17.0928 12.3956 17.5453 13.0078 17.8906C13.1578 17.9752 13.6362 18.253 13.6787 18.4072C12.8112 18.1237 12.0376 17.5548 11.1445 17.3574C10.9929 17.3239 10.9577 17.385 10.8223 17.2881L10.8057 17.1621Z" fill="white"/>
</g>
<defs>
<clipPath id="clip0_5_49">
<rect width="40" height="40" fill="white"/>
</clipPath>
</defs>
</svg>
