<svg width="40" height="40" viewBox="0 0 40 40" fill="none" xmlns="http://www.w3.org/2000/svg">
<g clip-path="url(#clip0_16_2)">
<rect width="40" height="40" fill="white"/>
<rect width="40" height="40" fill="#2D6EFF"/>
<path d="M12.5099 12.5133L23.4902 10.0249C23.5584 10.0094 23.6297 10.0307 23.6782 10.081L28.725 15.3034C28.784 15.3645 28.798 15.4562 28.7599 15.5322L25.361 22.2993C25.3213 22.3783 25.2345 22.4219 25.1474 22.4065L10.2283 19.7701C10.108 19.7488 10.0347 19.6257 10.0734 19.5098L12.3643 12.645C12.3865 12.5787 12.4417 12.5288 12.5099 12.5133Z" fill="white"/>
<path d="M26.01 23.1858L29.31 16.3911C29.3564 16.2956 29.5 16.3286 29.5 16.4348V24.4709C29.5 24.4899 29.4946 24.5085 29.4844 24.5246L26.1844 29.7103C26.1307 29.7947 26 29.7566 26 29.6566V23.2295C26 23.2144 26.0034 23.1994 26.01 23.1858Z" fill="white"/>
<path d="M25.1289 23.4843L10.3434 20.8715C10.1913 20.8446 10.0674 20.993 10.121 21.1378L13.1539 29.335C13.1819 29.4104 13.2522 29.4618 13.3326 29.4654L25.0852 29.9907C25.199 29.9958 25.2941 29.9048 25.2941 29.7909V23.6813C25.2941 23.5842 25.2245 23.5012 25.1289 23.4843Z" fill="white"/>
</g>
<defs>
<clipPath id="clip0_16_2">
<rect width="40" height="40" fill="white"/>
</clipPath>
</defs>
</svg>
