<svg width="40" height="40" viewBox="0 0 40 40" fill="none" xmlns="http://www.w3.org/2000/svg">
<g clip-path="url(#clip0_1_2)">
<rect width="40" height="40" fill="white"/>
<rect width="40" height="40" fill="black"/>
<path d="M22.1496 8.97331C22.5173 8.93103 22.9112 8.94966 23.2525 9.10438C24.7334 9.7756 24.6434 12.0729 24.6773 13.4136C24.7114 14.7648 24.6347 18.6123 25.0414 19.6568C25.1483 19.9314 25.3641 20.2383 25.6454 20.3554C25.9764 20.4931 26.404 20.4769 26.7308 20.3349C27.0541 20.1944 27.2983 19.8882 27.3971 19.5531C27.5438 19.0551 27.4858 18.4164 27.496 17.8981C27.5261 16.3627 27.4124 12.4673 27.9305 11.1704C28.1224 10.6899 28.4921 10.2262 28.9786 10.0226C29.3485 9.86789 29.8672 9.83456 30.239 9.995C30.7142 10.2001 31.1204 10.7502 31.3013 11.2151C31.6698 12.1632 31.7893 13.1138 31.9264 14.1112C32.0156 14.7618 32.1161 15.42 32.1761 16.0738C32.2767 17.166 32.2991 18.2688 32.2976 19.3649C32.2968 19.9728 32.3064 20.6202 32.2172 21.2202C32.1606 21.6031 32.0266 21.9927 31.87 22.3455C31.6222 22.9044 31.128 23.3709 30.5568 23.5872C29.7885 23.8783 28.6343 23.699 27.8021 23.6756C27.4082 23.6684 27.0142 23.6791 26.6213 23.7076C26.4825 23.7167 26.2191 23.727 26.0972 23.7547C24.3568 24.1499 22.5728 24.3071 20.7962 24.0643C20.2458 23.9891 19.6471 23.89 19.0709 23.8776C17.8321 23.8509 16.5892 24.1034 15.3452 24.0314C15.0072 24.0085 14.676 23.925 14.3675 23.7849C12.614 22.9827 14.0262 20.1609 12.4986 19.464C12.2482 19.3698 12.0325 19.3825 11.7824 19.4647C10.8741 19.7634 10.8941 20.895 10.888 21.6782C10.8856 22.0008 10.8155 22.2101 10.6894 22.5172C10.0342 24.1079 6.94577 23.8448 6.73105 22.058C6.47025 19.9228 6.21157 17.7711 6.22287 15.6168C6.22859 14.5285 6.35405 13.1165 7.16653 12.3006C7.72388 11.763 8.88269 11.5736 9.58019 11.9454C10.6828 12.5331 10.4082 14.4549 10.801 15.487C11.181 16.4855 11.5485 16.641 12.5387 16.3287C12.802 16.0235 12.9106 15.7362 12.9537 15.3362C13.1562 13.4549 12.4967 10.3821 15.1606 10.0695C16.1907 9.92085 17.1004 10.641 17.3092 11.6389C17.4163 12.1509 17.3944 12.7915 17.4153 13.3232L17.581 16.9985C17.6294 17.9321 17.6883 18.9662 17.8857 19.8933C17.9069 19.9928 18.1119 20.3284 18.1755 20.4382C18.7456 20.7595 19.486 20.7864 19.9295 20.2377C20.2235 19.8739 20.1716 19.3903 20.1711 18.9517C20.1694 17.4726 20.237 15.994 20.2402 14.5149C20.2708 12.8486 19.9074 9.32321 22.1496 8.97331Z" fill="white"/>
<path d="M25.6625 26.1955C26.2322 26.1532 26.8822 26.165 27.4273 26.2177C29.0333 26.3728 29.9504 27.8005 29.6988 29.3424C29.597 29.9662 29.4155 30.5386 28.8706 30.9191C27.0663 32.1791 24.2753 31.1656 22.287 30.8319C21.5708 30.6995 20.9245 30.6098 20.21 30.5225C19.5518 30.4387 18.8188 30.4171 18.1522 30.3545C17.6487 30.3072 17.1286 30.3171 16.6354 30.17C16.3539 30.0867 16.0933 29.9443 15.8713 29.7522C15.0663 29.0514 15.0557 27.8581 15.7471 27.087C16.472 26.2787 17.6538 26.227 18.6717 26.2314C18.9864 26.2328 19.3158 26.2354 19.631 26.257C20.5341 26.4355 21.3479 26.4493 22.2674 26.4555C23.4181 26.4632 24.5184 26.2646 25.6625 26.1955Z" fill="white"/>
</g>
<defs>
<clipPath id="clip0_1_2">
<rect width="40" height="40" fill="white"/>
</clipPath>
</defs>
</svg>
