<svg width="40" height="40" viewBox="0 0 40 40" fill="none" xmlns="http://www.w3.org/2000/svg">
<g clip-path="url(#clip0_3_18)">
<rect width="40" height="40" fill="white"/>
<rect width="40" height="40" fill="#F39718"/>
<g clip-path="url(#clip1_3_18)">
<path d="M19.9052 8.97088C20.2261 8.93338 20.4011 9.12498 20.4379 9.42832C20.6093 10.8385 20.5658 12.2757 20.7246 13.6896C20.7737 14.1267 20.8388 14.5563 20.9344 14.9875C20.9886 15.2275 21.0712 15.4618 21.1236 15.7054C21.6129 15.8822 21.8585 15.9872 22.3182 16.2468C22.4923 16.1036 22.6548 15.934 22.8337 15.7959C23.9179 14.9633 24.9298 14.0454 25.962 13.1537C26.4055 12.7707 27.2053 12.8804 26.6904 13.5989C26.4904 13.8778 26.261 14.0702 26.0321 14.3189L24.2056 16.3268C24.0396 16.5124 23.491 17.1121 23.3772 17.2947C23.6444 17.6639 23.8104 18.0418 23.9536 18.4659C24.5071 18.5291 25.0947 18.552 25.6538 18.5926C28.0014 18.7632 30.3853 18.9108 32.7362 18.9978L35.683 19.1326C36.0887 19.1532 36.4886 19.1485 36.8975 19.1852C37.1026 19.1598 37.4939 19.443 37.274 19.6362C36.9977 19.8793 35.8757 19.8496 35.5463 19.8623C34.776 19.8889 34.0057 19.9211 33.2358 19.959C31.8925 20.0316 30.5497 20.0844 29.2062 20.149C27.445 20.2337 25.6967 20.3903 23.9411 20.5234C23.8182 20.9229 23.6316 21.3714 23.3632 21.6996C23.7226 22.0618 24.1086 22.5396 24.4365 22.9333C25.1173 23.7506 25.9855 24.5041 26.6517 25.3153C26.7393 25.4219 26.8031 25.5449 26.8391 25.6767C26.9161 25.9646 26.737 26.0143 26.5018 26.0553C26.2912 25.999 26.0792 25.8747 25.9131 25.7396C25.6586 25.5326 25.4116 25.2914 25.1599 25.0727C24.4282 24.437 23.7013 23.8107 22.9347 23.2132C22.725 23.0498 22.5327 22.8682 22.3154 22.7072C21.8926 22.9934 21.6311 23.0783 21.1651 23.2522C20.6628 24.282 20.6179 27.0637 20.5365 28.2354C20.5056 28.68 20.5494 29.387 20.3461 29.8196C20.2933 29.9318 20.1709 29.9705 20.0566 29.9967C19.4288 30.097 19.5634 28.4806 19.527 28.1051C19.39 26.6894 19.4885 24.5335 18.9107 23.2472C18.5376 23.1457 18.0638 22.9097 17.7359 22.713C17.1981 23.2034 16.5028 23.6904 15.9489 24.179C15.5988 24.4793 15.3001 24.7622 14.9377 25.0607C14.6833 25.2615 13.8787 26.088 13.5291 26.0535C12.5525 25.9572 14.0625 24.61 14.1587 24.4999C14.4841 24.1272 14.7046 23.8931 14.9939 23.5874C15.5797 22.9684 16.1122 22.3093 16.6967 21.7045C16.4914 21.4187 16.2013 20.8681 16.14 20.5237C15.955 20.4886 15.4813 20.466 15.2606 20.4428C14.3899 20.3512 13.5218 20.3069 12.6488 20.2586L6.51327 19.9363L4.29472 19.8482C3.93311 19.833 3.20883 19.8497 2.85567 19.6938C2.8119 19.6745 2.72871 19.5484 2.73042 19.4879C2.73817 19.2141 3.13365 19.1968 3.3426 19.1739C3.79583 19.1466 4.25864 19.1381 4.71689 19.1143L9.6545 18.8901C10.8309 18.8253 12.1006 18.7758 13.2617 18.6883L15.3753 18.5233C15.6342 18.5046 15.8592 18.4723 16.1231 18.4636C16.1953 18.1139 16.4752 17.5672 16.6927 17.2795C16.5384 17.0671 16.3838 16.9173 16.2174 16.7199C15.7303 16.1483 15.2311 15.5864 14.72 15.0347C14.2705 14.5564 13.4013 13.7639 13.1758 13.2024C13.2831 13.0068 13.397 12.8398 13.6515 12.933C14.0728 13.0847 14.3624 13.4216 14.6883 13.6985C15.2544 14.1794 15.8054 14.6712 16.3708 15.153C16.7041 15.4371 17.1065 15.6767 17.4162 15.989C17.4711 16.0443 17.6582 16.2192 17.7724 16.2146C18.1437 16.0111 18.523 15.8623 18.9145 15.7024C19.4154 14.575 19.4448 12.1293 19.5293 10.8463C19.561 10.3646 19.5212 9.79146 19.6429 9.31199C19.6767 9.1793 19.8068 9.06507 19.9052 8.97088Z" fill="white"/>
</g>
</g>
<defs>
<clipPath id="clip0_3_18">
<rect width="40" height="40" fill="white"/>
</clipPath>
<clipPath id="clip1_3_18">
<rect width="36" height="23" fill="white" transform="translate(2 8)"/>
</clipPath>
</defs>
</svg>
