<svg width="40" height="40" viewBox="0 0 40 40" fill="none" xmlns="http://www.w3.org/2000/svg">
<g clip-path="url(#clip0_3_15)">
<rect width="40" height="40" fill="white"/>
<rect width="40" height="40" fill="#E60314"/>
<path fill-rule="evenodd" clip-rule="evenodd" d="M26.0445 5.15084C26.8292 4.80959 27.7041 5.04114 28.0299 5.88326C28.294 6.56647 28.1499 7.21269 27.8785 7.87154C27.77 8.13671 27.642 8.40752 27.5787 8.68599C29.7894 10.1981 31.2262 11.6079 31.7965 14.3628C32.521 17.8636 30.9524 20.5807 28.8248 23.2075C28.1055 24.0955 26.718 25.3472 26.8912 26.6284C27.1248 27.6585 28.4788 28.156 29.2594 28.6762C30.4067 29.4411 31.5253 30.3285 31.8248 31.7221C32.1813 33.3812 31.1055 34.6793 29.5142 34.9878C28.4816 35.1879 26.2111 35.3173 25.1344 34.8696L24.9351 34.7719L24.734 34.6069C22.6898 32.8534 21.8584 29.6606 21.8043 27.0717C21.7959 26.7967 21.796 26.5215 21.8053 26.2465C21.8103 26.1285 21.8748 25.5397 21.8531 25.4829C21.7149 25.4108 21.2549 25.4862 21.066 25.5014C20.6244 25.2824 20.6739 25.0551 20.9459 24.7251C21.1667 24.6993 21.3439 24.6991 21.5806 24.6635C22.6086 24.6409 24.2691 23.4445 24.9166 22.6899C25.4721 22.0424 26.2354 20.7376 26.3512 19.8579C26.6376 17.676 26.3239 15.643 23.6285 15.809C22.5017 15.7998 20.1826 16.3487 19.3492 17.1538C19.905 18.3374 21.2214 18.5043 22.3941 18.31C22.705 18.2584 23.1585 18.0248 23.3355 18.3969C23.5537 18.8345 22.7617 19.0874 22.4693 19.3432C21.933 19.8124 21.6896 20.3672 21.5533 21.061C21.5161 21.2443 21.4545 21.4745 21.3726 21.642C20.9106 21.7164 20.6374 21.568 20.7633 21.0503C20.9677 20.1608 21.0206 19.9263 21.6002 19.1538C20.4085 19.129 19.5433 18.7284 18.7935 17.812C18.6323 17.8348 18.1216 17.7964 17.9635 17.7378C17.8325 17.6891 17.7218 17.5953 17.5474 17.5561C17.3708 17.5978 17.2972 17.9462 17.1793 18.0844C16.4361 18.9544 15.3484 19.1117 14.5553 18.2348C14.3947 19.1915 14.2653 20.0674 14.357 21.0454C14.4138 22.249 14.6078 23.0614 15.5269 23.9126C15.9133 24.2778 16.4016 24.4992 16.9185 24.6069C17.076 24.6397 17.3064 24.6674 17.4498 24.7329C17.74 24.8654 17.6381 25.1602 17.4937 25.3569C17.3105 25.4219 17.2197 25.4384 17.0767 25.4331L16.9107 25.4213L16.5562 25.3188C16.4449 25.2841 16.3343 25.2473 16.2066 25.2026C16.252 25.8638 16.1175 26.2394 15.9849 26.8764C15.9004 27.3018 15.8135 27.7275 15.7242 28.1518C15.6136 28.6885 15.5356 29.2285 15.4576 29.771C15.3538 30.4857 15.2955 31.2068 15.2828 31.9292C15.2745 32.3565 15.2825 32.7831 15.2672 33.2104C15.2493 33.7091 15.123 33.9889 14.8014 34.3579L14.5611 34.6225C13.9724 35.0714 13.3187 35.0999 12.6217 35.1821C10.245 35.4623 8.65751 34.0019 9.06307 31.5825C10.014 26.4749 10.409 21.2754 9.69686 16.1079C9.49691 14.6571 9.11077 12.9648 9.26522 11.5268C9.61823 8.24099 11.96 7.46916 14.7945 7.14986C17.4234 6.85374 19.8926 6.6538 22.5328 7.00142C23.068 7.06855 23.6235 7.24136 24.1676 7.31197C24.5215 6.45495 25.1688 5.53184 26.0445 5.15084ZM18.8961 7.54732C17.1625 7.65178 15.4866 7.71126 13.7789 8.05904C12.6973 8.2793 11.6829 8.4544 10.9312 9.3276C9.7226 10.7318 9.87195 12.5175 10.1734 14.2085C10.3314 15.0944 10.3898 16.0427 10.5504 16.934C10.6272 17.5134 10.6522 18.1986 10.691 18.7905C10.8007 20.3224 10.832 21.8589 10.7847 23.394C10.7638 23.9097 10.7037 24.4065 10.6558 24.9204C10.614 25.3697 10.6118 25.8604 10.5611 26.3061C10.444 27.3378 10.3147 28.4014 10.1851 29.4282C10.0714 30.3291 9.79921 31.2181 9.74862 32.1245C9.64673 33.9529 10.9395 34.646 12.5992 34.4575C13.1306 34.397 13.8111 34.3521 14.2008 33.9184C14.6525 33.4034 14.5379 32.595 14.5387 31.936C14.5394 31.578 14.556 31.2201 14.5875 30.8637C14.6463 30.2135 14.6975 29.6172 14.8072 28.9536C14.9882 27.859 15.3618 26.586 15.4361 25.4917C15.4833 24.797 14.5674 24.1106 14.2652 23.5698C13.5712 22.4394 13.4658 21.0914 13.5816 19.7973C13.6375 18.9632 13.9029 18.1103 13.8785 17.2739C13.8399 15.9517 13.0532 14.7902 13.7154 13.4741C14.2025 12.5064 15.1524 12.3161 16.025 12.9077C16.1703 12.4804 16.2961 12.0711 16.6451 11.7563C17.2481 11.2127 18.3039 11.0897 18.9283 11.6684C18.9927 11.7282 19.0631 11.8144 19.1217 11.8813C19.3148 11.515 19.4483 11.1731 19.7701 10.8979C20.8007 10.0165 22.167 10.5792 22.6793 11.7378C22.986 10.9907 23.1688 10.0193 23.4117 9.22799C23.5052 8.92354 23.7469 8.27803 23.8014 8.02486C22.8688 7.60017 19.9863 7.5045 18.8961 7.54732ZM27.3082 9.39107C27.1294 9.77161 26.9742 10.1974 26.856 10.601C26.6736 11.2245 25.7234 15.2014 25.8092 15.4575C25.8631 15.6141 26.0941 15.7311 26.233 15.8042C27.1632 16.9388 27.2569 18.2399 27.1207 19.645C27.0103 20.7829 26.3928 22.0035 25.7086 22.9126C25.5037 23.1848 25.138 23.5255 24.9615 23.8042C24.7874 23.8713 24.3594 24.2249 24.1471 24.3745C23.8463 24.5863 22.8834 25.0108 22.7291 25.2866C22.57 25.6567 22.5644 26.1603 22.568 26.5463C22.5834 28.225 22.8309 30.0353 23.481 31.5932C23.8686 32.5218 24.9776 34.3609 26.0816 34.3637C27.0629 34.4904 28.1205 34.447 29.1021 34.3237C31.0711 34.0762 31.7816 32.4196 30.5924 30.8198C29.7927 29.6827 28.4221 29.1128 27.318 28.354C25.1289 26.8494 26.4387 24.7209 27.8404 23.2358C28.285 22.7648 28.8848 21.9247 29.2662 21.4057C30.6457 19.5284 31.5915 17.1997 31.1549 14.8403C30.7845 12.6264 29.7185 11.0982 27.8912 9.81588C27.7052 9.67289 27.5068 9.51303 27.3082 9.39107ZM15.3228 13.4057C15.1917 13.3433 14.9859 13.2634 14.8492 13.3305C13.6742 13.9079 14.4515 16.2246 14.7662 17.0229C14.8677 17.2871 15.0108 17.5335 15.189 17.7534C15.3121 18.0431 15.6941 18.1421 15.9713 18.0385C16.3018 17.9149 16.5487 17.7146 16.7115 17.4028C17.0397 16.7741 16.6149 16.3014 16.4332 15.728C16.3425 15.4893 16.3073 15.1477 16.1871 14.8628C16.0026 14.517 15.8572 14.1454 15.6187 13.8286C15.5092 13.683 15.4146 13.5637 15.3228 13.4057ZM18.3814 12.2348C17.9372 11.8886 17.2912 12.083 16.9732 12.5063C16.6491 12.9378 16.8523 13.7924 16.9 14.3012C17.0086 14.9783 17.2266 15.9326 17.6207 16.4995C17.6688 16.5686 17.7416 16.7009 17.8004 16.7573C18.1389 16.6659 18.3469 16.7345 18.7144 16.4301C19.2923 15.9515 19.0713 15.0876 19.1451 14.3794L19.0992 14.062C18.8979 13.5526 18.8106 13.025 18.5025 12.5503C18.4406 12.4548 18.3864 12.3499 18.3814 12.2348ZM21.6178 11.5376C21.1381 11.1189 20.6259 11.058 20.1656 11.562C19.6901 12.0831 19.8338 12.978 19.857 13.6294C19.8947 14.3065 20.1204 15.0364 20.2379 15.7104C20.719 15.5991 21.3185 15.4245 21.8072 15.2876C22.0325 15.2461 22.2389 15.1848 22.4586 15.1225C22.4645 14.688 22.4389 14.2536 22.3824 13.8227C22.3081 13.2349 22.1002 11.9115 21.6178 11.5376ZM23.4742 11.6919C23.3837 12.1296 23.1418 12.8877 23.0826 13.2885C23.0542 13.4809 23.1956 14.2899 23.2125 14.5737C23.2074 14.7291 23.2117 14.8868 23.2135 15.0424C23.4422 15.0569 23.7676 15.0335 24.0162 15.0444C24.3077 15.0572 24.7591 15.1194 25.026 15.0864C25.141 14.9586 25.538 12.841 25.568 12.5532C25.3887 12.5183 25.2283 12.4889 25.0474 12.4643C24.3931 12.2994 24.009 12.1096 23.4742 11.6919ZM23.9127 10.1987C23.8921 10.4299 23.7115 10.9862 23.6246 11.227C24.1789 11.7848 24.3344 11.868 25.0982 12.0805C25.2524 12.1045 25.5603 12.1835 25.6793 12.0815C25.6549 11.9389 25.3615 11.8065 25.2408 11.7387C24.6873 11.2763 24.2259 10.8806 23.9127 10.1987ZM25.9976 10.8764C25.6573 10.9665 25.4962 10.9592 25.1578 10.9946L25.0504 10.9858L25.025 11.0122C25.0558 11.1201 25.2471 11.2486 25.3404 11.3139C25.5139 11.4449 25.624 11.5175 25.8111 11.6284C25.8669 11.379 25.9199 11.119 25.9976 10.8764ZM24.4381 8.53072C24.1428 9.12993 23.9081 10.0775 24.6607 10.4526C24.8838 10.5637 25.3048 10.6647 25.5435 10.5864C25.7489 10.5613 25.7879 10.5525 25.984 10.4878C26.1861 10.2869 26.302 10.0126 26.3746 9.74068C26.4526 9.44818 26.1748 9.44888 25.9664 9.40963C25.4507 9.16628 24.8797 8.88676 24.4381 8.53072ZM26.693 5.73385C25.7149 6.02817 25.4159 6.54642 24.9215 7.42623C24.7858 7.66769 24.6598 7.91956 24.5758 8.18502C25.0567 8.53965 25.5859 8.82417 26.1471 9.02974C26.2519 9.07453 26.4358 9.16384 26.5426 9.12349C26.667 8.99538 26.8076 8.60526 26.8648 8.42037C27.1656 7.44952 27.8881 6.63012 27.0084 5.72994C26.9033 5.72916 26.7979 5.73026 26.693 5.73385Z" fill="white"/>
</g>
<defs>
<clipPath id="clip0_3_15">
<rect width="40" height="40" fill="white"/>
</clipPath>
</defs>
</svg>
